<svg xmlns="http://www.w3.org/2000/svg" width="108" height="115" viewBox="0 0 108 115"><g transform="translate(-74 -90)"><circle cx="27.5" cy="27.5" r="27.5" transform="translate(74 90)" fill="#9ba1f6"/><path d="M-66-48h-.01a56.706,56.706,0,0,1-19.452-3.378,50.941,50.941,0,0,1-15.893-9.215A43.122,43.122,0,0,1-112.07-74.263,37.62,37.62,0,0,1-116-91a37.522,37.522,0,0,1,.659-7H-66Z" transform="translate(193 253)" fill="#9ba1f6"/><path d="M0,0H0A46,46,0,0,1,46,46v69a0,0,0,0,1,0,0h0A46,46,0,0,1,0,69V0A0,0,0,0,1,0,0Z" transform="translate(136 90)" fill="#9ba1f6"/></g></svg>