<?xml version="1.0" standalone="no"?>
<!DOCTYPE svg PUBLIC "-//W3C//DTD SVG 20010904//EN"
 "http://www.w3.org/TR/2001/REC-SVG-20010904/DTD/svg10.dtd">
<svg version="1.0" xmlns="http://www.w3.org/2000/svg"
 width="512.000000pt" height="512.000000pt" viewBox="0 0 512.000000 512.000000"
 preserveAspectRatio="xMidYMid meet">

<g transform="translate(0.000000,512.000000) scale(0.100000,-0.100000)"
fill="#000000" stroke="none">
<path d="M2040 4983 c-544 -47 -1021 -265 -1394 -639 -334 -334 -546 -755
-622 -1234 -27 -169 -28 -937 -1 -1114 147 -972 891 -1716 1863 -1863 104 -16
190 -18 674 -18 484 0 570 2 674 18 970 147 1707 882 1863 1857 15 99 18 176
18 560 0 488 -5 553 -66 787 -199 777 -813 1388 -1588 1584 -233 58 -278 62
-851 64 -289 1 -545 1 -570 -2z m440 -2321 c0 -352 2 -421 15 -438 9 -12 14
-42 15 -81 l0 -63 -38 0 c-46 0 -78 29 -88 78 l-7 33 -35 -42 c-41 -48 -101
-78 -153 -79 -52 0 -138 48 -176 97 -117 156 -107 436 21 571 44 47 83 65 141
65 62 0 102 -20 149 -75 l36 -42 0 197 0 197 60 0 60 0 0 -418z m-2240 188 l0
-200 185 0 185 0 0 200 0 200 60 0 60 0 -2 -482 -3 -483 -57 -3 -58 -3 0 216
0 215 -185 0 -185 0 -2 -212 -3 -213 -57 -3 -58 -3 0 486 0 485 60 0 60 0 0
-200z m3129 -87 c64 -156 118 -283 121 -283 3 0 39 80 79 178 40 97 93 225
118 285 l45 107 64 0 64 0 0 -485 0 -485 -60 0 -60 0 -2 337 -3 336 -104 -251
-104 -252 -36 0 -36 0 -105 253 -105 252 -3 -338 -2 -338 -58 3 -57 3 -3 483
-2 483 66 -3 67 -3 116 -282z m-2213 17 c43 -18 83 -63 105 -115 8 -19 15
-105 18 -231 5 -176 8 -205 24 -222 14 -15 17 -33 15 -73 l-3 -54 -39 -3 c-45
-4 -80 23 -90 69 l-6 29 -39 -39 c-78 -78 -197 -91 -268 -28 -96 85 -102 261
-11 343 61 56 162 76 256 51 l52 -14 0 31 c0 155 -127 211 -260 115 -47 -35
-51 -33 -72 35 -11 35 -10 39 13 57 95 76 204 93 305 49z m631 3 c69 -45 83
-120 83 -441 l0 -263 -57 3 -58 3 -5 255 c-5 270 -8 285 -55 316 -32 21 -77
11 -121 -28 -66 -58 -68 -69 -74 -318 l-5 -225 -55 0 -55 0 -3 353 -2 352 55
0 55 0 0 -62 0 -63 19 31 c56 92 200 137 278 87z m2499 1 c17 -7 45 -29 63
-49 59 -68 64 -90 69 -313 3 -163 7 -204 18 -209 10 -4 14 -23 14 -69 l0 -64
-43 0 c-52 0 -75 20 -84 73 l-5 35 -32 -36 c-37 -42 -117 -82 -166 -82 -20 0
-56 10 -80 23 -142 71 -147 306 -8 391 58 35 149 45 221 23 l47 -15 0 46 c0
141 -119 191 -248 106 -30 -20 -55 -34 -56 -32 -1 2 -10 23 -19 47 -16 42 -16
46 0 63 67 74 211 103 309 62z m593 16 c51 -14 89 -57 108 -120 14 -45 17
-102 18 -325 l0 -270 -57 -3 -56 -3 -4 253 c-3 221 -5 257 -21 286 -46 85
-154 54 -211 -60 -26 -51 -26 -56 -26 -265 l0 -213 -55 0 -55 0 0 355 0 355
50 0 50 0 0 -61 0 -62 41 47 c43 48 83 74 134 87 43 10 46 10 84 -1z m-2149
-270 c42 -140 78 -261 81 -268 2 -7 35 103 72 245 38 142 70 264 72 271 3 8
24 12 61 12 l56 0 -6 -27 c-37 -152 -252 -886 -267 -910 -31 -51 -79 -75 -141
-71 l-53 3 -3 69 -3 69 36 -6 c48 -8 68 13 94 99 l21 67 -105 336 c-59 185
-108 344 -111 354 -5 16 1 18 57 15 l63 -3 76 -255z"/>
<path d="M2144 2651 c-20 -12 -43 -41 -60 -77 -24 -48 -29 -72 -29 -134 0 -64
5 -84 30 -135 24 -49 39 -64 75 -83 53 -27 88 -24 137 14 54 41 63 69 63 195
0 102 -2 116 -25 155 -46 78 -126 105 -191 65z"/>
<path d="M974 2410 c-36 -14 -64 -59 -64 -102 0 -73 40 -117 105 -118 85 0
155 71 155 158 0 40 -3 44 -35 58 -37 15 -127 18 -161 4z"/>
<path d="M4094 2401 c-63 -39 -67 -143 -7 -190 34 -27 97 -27 141 -1 47 29 72
75 72 137 0 48 -2 52 -31 62 -51 18 -140 14 -175 -8z"/>
</g>
</svg>
